<?xml version="1.0" encoding="UTF-8" standalone="no"?>
<svg
   width="308.65405"
   height="221.42578"
   viewBox="-702 0 308.65405 221.42578"
   version="1.2"
   id="svg14"
   sodipodi:docname="opendia_mark_wip.svg"
   inkscape:version="1.2.2 (b0a8486541, 2022-12-01)"
   xmlns:inkscape="http://www.inkscape.org/namespaces/inkscape"
   xmlns:sodipodi="http://sodipodi.sourceforge.net/DTD/sodipodi-0.dtd"
   xmlns="http://www.w3.org/2000/svg"
   xmlns:svg="http://www.w3.org/2000/svg"><defs
   id="defs18" />
<sodipodi:namedview
   id="namedview16"
   pagecolor="#ffffff"
   bordercolor="#000000"
   borderopacity="0.25"
   inkscape:showpageshadow="2"
   inkscape:pageopacity="0.0"
   inkscape:pagecheckerboard="0"
   inkscape:deskcolor="#d1d1d1"
   showgrid="false"
   inkscape:zoom="0.44764958"
   inkscape:cx="495.92363"
   inkscape:cy="1400.6492"
   inkscape:window-width="1434"
   inkscape:window-height="1008"
   inkscape:window-x="2190"
   inkscape:window-y="445"
   inkscape:window-maximized="0"
   inkscape:current-layer="svg14" />
<title
   id="title2">Logo</title>

\n<path
   style="fill:#58a6ff;fill-opacity:1;stroke-width:15.1181;stroke-linecap:round;paint-order:stroke fill markers"
   id="path1245"
   d="m -697.58863,69.586304 c 40.17003,-38.75437 95.33955,-64.9827399 151.93645,-62.3846699 26.38111,1.37994 52.41955,10.6789499 73.14809,27.1679099 32.90718,5.88093 66.0753,30.89681 69.40788,66.055166 2.14838,23.2312 -13.36596,43.9405 -32.19478,55.8241 -38.86396,44.1288 -102.84718,58.9624 -159.16221,47.6293 -30.62403,-3.8935 -118.98113,-46.7447 -86.69783,-79.0355 38.64332,-23.7999 111.4833,-24.0717 111.4833,-24.0717 0,0 56.10172,-3.821696 140.17804,17.9095 -101.24616,-55.274496 -102.50382,-55.002576 -135.51636,-52.143146 -17.68608,2.50165 -35.01229,7.47998 -61.24437,25.30155 21.50433,-11.39934 39.27164,-16.62672 71.56588,-20.54107 13.16434,0.59251 14.82075,-4.06515 119.01688,44.606266 -38.45745,-20.963796 -129.50682,-25.631896 -129.50682,-25.631896 0,0 -64.65805,2.6164 -104.71962,14.104996 -14.9298,1.2237 -31.73778,11.3121 -31.64989,27.9482 9.02443,47.9047 65.82603,72.8742 102.53074,82.0728 46.62953,14.1327 90.63513,6.4196 134.29657,-18.3711 11.47166,-6.5597 21.86316,-14.9834 30.71206,-24.7943 24.20865,-10.2799 42.39102,-35.1236 40.52725,-62.0249 -1.42587,-38.437896 -33.89808,-72.480276 -71.99724,-76.557886 -46.50088,-35.1610399 -110.78971,-41.2883599 -164.85832,-21.44062 -23.35542,8.25919 -44.85542,21.26073 -64.35596,36.37971 -6.87161,5.31682 -10.88816,15.57745 -2.89974,21.99729 z"
   sodipodi:nodetypes="cccccccccccccccccccccccc"
   inkscape:export-filename="path1245.png"
   inkscape:export-xdpi="96"
   inkscape:export-ydpi="96" />
</svg>
